<?xml version="1.0" standalone="no"?>
<!DOCTYPE svg PUBLIC "-//W3C//DTD SVG 20010904//EN"
 "http://www.w3.org/TR/2001/REC-SVG-20010904/DTD/svg10.dtd">
<svg version="1.0" xmlns="http://www.w3.org/2000/svg"
 width="500.000000pt" height="500.000000pt" viewBox="0 0 500.000000 500.000000"
 preserveAspectRatio="xMidYMid meet">

<g transform="translate(0.000000,500.000000) scale(0.100000,-0.100000)"
fill="#000000" stroke="none">
<path d="M0 2500 l0 -2500 2500 0 2500 0 0 2500 0 2500 -2500 0 -2500 0 0
-2500z m2676 1479 c540 -54 1025 -421 1228 -929 43 -107 81 -254 97 -375 17
-130 6 -385 -21 -500 -12 -49 -24 -100 -27 -113 l-5 -22 241 0 241 0 0 -230 0
-230 -359 0 -360 0 -128 -128 c-70 -70 -157 -149 -193 -174 -168 -117 -353
-201 -545 -246 -101 -24 -128 -26 -325 -27 -171 0 -232 4 -299 18 -311 67
-536 191 -769 424 l-134 133 -374 0 -374 0 0 230 0 230 258 0 258 0 -23 93
c-49 200 -55 485 -14 668 120 533 503 955 1013 1117 205 66 388 84 614 61z"/>
<path d="M2380 3860 c-370 -37 -707 -223 -949 -525 -147 -183 -249 -430 -282
-680 -21 -157 5 -428 54 -570 12 -36 18 -40 50 -43 43 -4 43 -3 18 69 -54 160
-71 422 -38 605 48 267 170 497 367 694 258 258 562 383 930 381 352 -2 666
-136 914 -389 166 -170 272 -353 331 -574 63 -236 56 -528 -19 -737 -9 -24
-16 -45 -16 -47 0 -2 17 -4 39 -4 l39 0 21 78 c57 204 65 440 22 649 -87 420
-358 770 -746 961 -215 106 -492 156 -735 132z"/>
<path d="M1320 2584 l0 -216 121 4 c118 3 121 4 145 31 20 23 24 39 24 92 0
55 -3 66 -23 82 -23 17 -23 18 -5 33 45 36 27 154 -28 179 -14 6 -72 11 -129
11 l-105 0 0 -216z m195 96 l0 -45 -52 -3 -53 -3 0 51 0 51 53 -3 52 -3 0 -45z
m3 -132 c7 -7 12 -28 12 -48 0 -48 -15 -60 -72 -60 l-48 0 0 60 0 60 48 0 c26
0 53 -5 60 -12z"/>
<path d="M1720 2772 c-33 -29 -33 -29 -38 -140 -6 -137 3 -195 33 -230 21 -25
30 -27 107 -30 69 -2 88 0 115 17 41 26 46 51 41 224 -4 176 -7 180 -137 185
-86 4 -89 3 -121 -26z m164 -58 c23 -23 23 -235 0 -258 -18 -18 -66 -21 -95
-6 -17 10 -19 22 -19 133 0 82 4 127 12 135 17 17 84 15 102 -4z"/>
<path d="M2060 2625 c0 -195 7 -223 59 -245 19 -7 60 -11 107 -8 124 6 137 34
132 283 l-3 140 -42 3 -43 3 0 -170 c0 -158 -1 -171 -19 -181 -23 -12 -71 -13
-88 -2 -9 6 -13 57 -15 177 l-3 170 -42 3 -43 3 0 -176z"/>
<path d="M2440 2585 l0 -216 123 3 122 3 3 32 3 32 -83 3 -83 3 -3 178 -2 177
-40 0 -40 0 0 -215z"/>
<path d="M2740 2586 l0 -216 105 0 c118 0 159 13 175 56 6 14 10 90 10 169 0
138 -1 145 -24 172 -24 27 -27 28 -145 31 l-121 4 0 -216z m200 125 c5 -11 10
-69 10 -130 0 -128 -7 -141 -76 -141 l-44 0 0 145 0 145 50 0 c38 0 52 -4 60
-19z"/>
<path d="M3110 2585 l0 -216 123 3 122 3 3 33 3 32 -80 0 -81 0 0 55 0 55 66
0 65 0 -3 38 -3 37 -62 3 -63 3 0 49 0 50 80 0 80 0 0 35 0 35 -125 0 -125 0
0 -215z"/>
<path d="M3434 2787 c-2 -7 -3 -102 -2 -212 l3 -200 43 -3 42 -3 0 80 c0 80 0
81 25 81 22 0 31 -11 63 -77 37 -78 37 -78 80 -81 25 -2 42 1 42 8 0 6 -16 43
-36 82 -35 70 -36 72 -16 87 30 24 42 55 42 109 0 67 -17 110 -51 127 -37 20
-227 21 -235 2z m184 -66 c9 -5 12 -25 10 -62 l-3 -54 -52 -3 -53 -3 0 65 0
66 43 0 c23 0 48 -4 55 -9z"/>
<path d="M1862 1898 c-16 -16 -16 -119 1 -142 10 -13 24 -17 57 -14 41 3 45 6
48 31 4 29 -21 39 -32 12 -3 -8 -15 -15 -26 -15 -18 0 -20 6 -20 55 0 49 2 55
20 55 11 0 23 -7 26 -15 11 -27 36 -17 32 13 -3 24 -7 27 -48 30 -26 2 -50 -2
-58 -10z"/>
<path d="M2032 1898 c-16 -16 -16 -130 0 -146 17 -17 83 -15 97 2 7 9 11 41 9
83 l-3 68 -45 3 c-26 2 -50 -2 -58 -10z m68 -73 c0 -48 -2 -55 -20 -55 -18 0
-20 7 -20 55 0 48 2 55 20 55 18 0 20 -7 20 -55z"/>
<path d="M2194 1897 c-3 -8 -4 -45 -2 -83 l3 -69 53 -3 c42 -2 52 0 52 12 0
12 -10 16 -35 16 l-35 0 0 70 c0 56 -3 70 -15 70 -9 0 -18 -6 -21 -13z"/>
<path d="M2347 1903 c-12 -11 -8 -138 5 -151 7 -7 28 -12 48 -12 50 0 60 14
60 85 0 34 -5 66 -12 73 -13 13 -90 17 -101 5z m73 -78 c0 -48 -2 -55 -20 -55
-18 0 -20 7 -20 55 0 48 2 55 20 55 18 0 20 -7 20 -55z"/>
<path d="M2510 1825 c0 -78 2 -85 20 -85 16 0 20 7 20 30 0 17 4 30 9 30 5 0
14 -13 21 -30 8 -19 20 -30 32 -30 15 0 18 4 12 18 -8 19 -8 43 2 90 9 46 -8
62 -67 62 l-49 0 0 -85z m78 33 c-5 -34 -38 -37 -38 -4 0 20 5 26 21 26 15 0
20 -5 17 -22z"/>
<path d="M2695 1838 c-10 -40 -20 -79 -23 -85 -6 -19 35 -16 42 2 3 8 17 15
31 15 16 0 25 -6 25 -15 0 -8 9 -15 20 -15 23 0 23 2 11 50 -6 19 -15 54 -21
78 -9 37 -14 42 -38 42 -26 0 -29 -4 -47 -72z m59 -10 c5 -21 3 -28 -9 -28
-16 0 -19 17 -9 45 8 19 9 18 18 -17z"/>
<path d="M2854 1897 c-3 -8 -4 -45 -2 -83 l3 -69 53 -3 c48 -3 53 -1 62 23 13
34 13 101 0 126 -8 15 -22 19 -61 19 -32 0 -51 -5 -55 -13z m81 -72 c0 -44 -3
-50 -22 -53 -22 -3 -23 0 -23 53 0 53 1 56 23 53 19 -3 22 -9 22 -53z"/>
<path d="M3030 1884 c-6 -14 -10 -40 -10 -59 0 -19 4 -45 10 -59 8 -23 15 -26
54 -26 35 0 48 5 56 19 14 27 13 124 -2 139 -7 7 -31 12 -55 12 -37 0 -45 -4
-53 -26z m80 -60 c0 -52 -1 -55 -22 -52 -19 2 -24 10 -26 42 -4 49 3 66 28 66
18 0 20 -6 20 -56z"/>
<path d="M1575 1493 c180 -172 392 -284 649 -345 126 -30 426 -32 561 -4 256
54 491 176 673 351 l87 84 -48 1 c-45 0 -53 -4 -120 -63 -176 -153 -373 -253
-597 -302 -118 -26 -335 -31 -460 -11 -246 39 -472 146 -670 317 -64 55 -72
59 -117 59 l-48 -1 90 -86z"/>
</g>
</svg>
